<mxfile host="Electron" modified="2021-03-16T12:21:03.167Z" agent="5.0 (Windows NT 10.0; Win64; x64) AppleWebKit/537.36 (KHTML, like Gecko) draw.io/14.1.8 Chrome/87.0.4280.88 Electron/11.1.1 Safari/537.36" etag="Rz6R8ByYMXIYMo8L9uf0" compressed="false" version="14.1.8" type="device">
  <diagram id="7R6dVYdDXXyjmVBWF1pv" name="Seite-1">
    <mxGraphModel dx="782" dy="497" grid="1" gridSize="10" guides="1" tooltips="1" connect="1" arrows="1" fold="1" page="1" pageScale="1" pageWidth="827" pageHeight="1169" background="#000000" math="0" shadow="0">
      <root>
        <mxCell id="0" />
        <mxCell id="1" parent="0" />
        <mxCell id="QBZ3JtobXY-l4nz9YO6q-1" value="Akzeptanzprojekt&lt;br&gt;(komplexes Standardprojekt)" style="rounded=0;whiteSpace=wrap;html=1;fillColor=#ffe6cc;strokeColor=#d79b00;" parent="1" vertex="1">
          <mxGeometry x="160" y="80" width="200" height="80" as="geometry" />
        </mxCell>
        <mxCell id="QBZ3JtobXY-l4nz9YO6q-2" value="Pionierprojekt" style="rounded=0;whiteSpace=wrap;html=1;fillColor=#e1d5e7;strokeColor=#9673a6;sketch=0;" parent="1" vertex="1">
          <mxGeometry x="360" y="80" width="200" height="80" as="geometry" />
        </mxCell>
        <mxCell id="QBZ3JtobXY-l4nz9YO6q-3" value="Potentialprojekt" style="rounded=0;whiteSpace=wrap;html=1;fillColor=#dae8fc;strokeColor=#6c8ebf;" parent="1" vertex="1">
          <mxGeometry x="360" y="160" width="200" height="80" as="geometry" />
        </mxCell>
        <mxCell id="QBZ3JtobXY-l4nz9YO6q-4" value="Standardprojekt" style="rounded=0;whiteSpace=wrap;html=1;fillColor=#d5e8d4;strokeColor=#82b366;" parent="1" vertex="1">
          <mxGeometry x="160" y="160" width="200" height="80" as="geometry" />
        </mxCell>
        <mxCell id="QBZ3JtobXY-l4nz9YO6q-5" value="" style="endArrow=classic;html=1;startArrow=none;startFill=0;strokeWidth=2;fontColor=#FFFFFF;strokeColor=#FFFFFF;" parent="1" edge="1">
          <mxGeometry width="50" height="50" relative="1" as="geometry">
            <mxPoint x="160" y="250" as="sourcePoint" />
            <mxPoint x="160" y="60" as="targetPoint" />
          </mxGeometry>
        </mxCell>
        <mxCell id="QBZ3JtobXY-l4nz9YO6q-6" value="" style="endArrow=classic;html=1;startArrow=none;startFill=0;strokeWidth=2;fontColor=#FFFFFF;strokeColor=#FFFFFF;" parent="1" edge="1">
          <mxGeometry width="50" height="50" relative="1" as="geometry">
            <mxPoint x="150" y="240" as="sourcePoint" />
            <mxPoint x="580" y="240" as="targetPoint" />
          </mxGeometry>
        </mxCell>
        <mxCell id="QBZ3JtobXY-l4nz9YO6q-7" value="geschlossen" style="text;html=1;strokeColor=none;fillColor=none;align=center;verticalAlign=middle;whiteSpace=wrap;rounded=0;fontColor=#FFFFFF;" parent="1" vertex="1">
          <mxGeometry x="220" y="250" width="80" height="20" as="geometry" />
        </mxCell>
        <mxCell id="QBZ3JtobXY-l4nz9YO6q-8" value="offen" style="text;html=1;strokeColor=none;fillColor=none;align=center;verticalAlign=middle;whiteSpace=wrap;rounded=0;fontColor=#FFFFFF;" parent="1" vertex="1">
          <mxGeometry x="420" y="250" width="80" height="20" as="geometry" />
        </mxCell>
        <mxCell id="QBZ3JtobXY-l4nz9YO6q-10" value="groÃŸ" style="text;html=1;strokeColor=none;fillColor=none;align=center;verticalAlign=middle;whiteSpace=wrap;rounded=0;fontColor=#FFFFFF;" parent="1" vertex="1">
          <mxGeometry x="120" y="110" width="40" height="20" as="geometry" />
        </mxCell>
        <mxCell id="QBZ3JtobXY-l4nz9YO6q-11" value="klein" style="text;html=1;strokeColor=none;fillColor=none;align=center;verticalAlign=middle;whiteSpace=wrap;rounded=0;fontColor=#FFFFFF;" parent="1" vertex="1">
          <mxGeometry x="120" y="190" width="40" height="20" as="geometry" />
        </mxCell>
        <mxCell id="QBZ3JtobXY-l4nz9YO6q-13" value="" style="shape=curlyBracket;whiteSpace=wrap;html=1;rounded=1;rotation=-90;fontColor=#FFFFFF;strokeColor=#FFFFFF;" parent="1" vertex="1">
          <mxGeometry x="350" y="80" width="20" height="400" as="geometry" />
        </mxCell>
        <mxCell id="QBZ3JtobXY-l4nz9YO6q-14" value="" style="shape=curlyBracket;whiteSpace=wrap;html=1;rounded=1;fontColor=#FFFFFF;strokeColor=#FFFFFF;" parent="1" vertex="1">
          <mxGeometry x="110" y="80" width="20" height="160" as="geometry" />
        </mxCell>
        <mxCell id="QBZ3JtobXY-l4nz9YO6q-15" value="Aufgabenstellung" style="text;html=1;strokeColor=none;fillColor=none;align=center;verticalAlign=middle;whiteSpace=wrap;rounded=0;fontStyle=1;fontColor=#FFFFFF;" parent="1" vertex="1">
          <mxGeometry x="340" y="300" width="40" height="20" as="geometry" />
        </mxCell>
        <mxCell id="QBZ3JtobXY-l4nz9YO6q-16" value="soziale Kompetenz" style="text;html=1;strokeColor=none;fillColor=none;align=center;verticalAlign=middle;whiteSpace=wrap;rounded=0;fontStyle=1;fontColor=#FFFFFF;" parent="1" vertex="1">
          <mxGeometry x="50" y="150" width="40" height="20" as="geometry" />
        </mxCell>
      </root>
    </mxGraphModel>
  </diagram>
</mxfile>
